# xmcd
#
# Track frame offsets:
#	150
#	8958
#	37026
#	62219
#	81184
#	90703
#	103592
#	121018
#	129648
#	145566
#	168208
#	174283
#	193015
#	203290
#	209663
#	227350
#	232768
#	258831
#	283250
#	297640
#	308910
#	323078
#
# Disc length: 4553 seconds
#
# Revision: 0
# Processed by: cddbd v1.5.2PL0 Copyright (c) Steve Scherf et al.
# Submitted via: EasyCDDAExtractor 16.0.6.1
#
DISCID=2e11c716
DTITLE=Στάκας Τζων - Καμινίκια 1992, ζωντ. ηχογράφ.-Τ. Στάκας 1
DYEAR=1993
DGENRE=Ποικίλη
TTITLE0=Μέρος 1
TTITLE1=Μέρος 2
TTITLE2=Μέρος 3
TTITLE3=Μέρος 4
TTITLE4=Μέρος 5
TTITLE5=Μέρος 6
TTITLE6=Μέρος 7
TTITLE7=Μέρος 8
TTITLE8=Μέρος 9
TTITLE9=Μέρος 10
TTITLE10=Μέρος 11
TTITLE11=Μέρος 12
TTITLE12=Μέρος 13
TTITLE13=Μέρος 14
TTITLE14=Μέρος 15
TTITLE15=Μέρος 16
TTITLE16=Μέρος 17
TTITLE17=Μέρος 18
TTITLE18=Μέρος 19
TTITLE19=Μέρος 20
TTITLE20=Μέρος 21
TTITLE21=Μέρος 22
EXTD=
EXTT0=
EXTT1=
EXTT2=
EXTT3=
EXTT4=
EXTT5=
EXTT6=
EXTT7=
EXTT8=
EXTT9=
EXTT10=
EXTT11=
EXTT12=
EXTT13=
EXTT14=
EXTT15=
EXTT16=
EXTT17=
EXTT18=
EXTT19=
EXTT20=
EXTT21=
PLAYORDER=
